<?xml version="1.0" standalone="no"?>
<!DOCTYPE svg PUBLIC "-//W3C//DTD SVG 20010904//EN"
 "http://www.w3.org/TR/2001/REC-SVG-20010904/DTD/svg10.dtd">
<svg version="1.0" xmlns="http://www.w3.org/2000/svg"
 width="260.000000pt" height="260.000000pt" viewBox="0 0 260.000000 260.000000"
 preserveAspectRatio="xMidYMid meet">
<metadata>
Created by potrace 1.14, written by Peter Selinger 2001-2017
</metadata>
<g transform="translate(0.000000,260.000000) scale(0.100000,-0.100000)"
fill="#000000" stroke="none">
<path d="M840 2587 c-82 -28 -151 -89 -185 -161 -32 -68 -33 -77 -34 -248 l-1
-147 -92 -3 -92 -3 -1 -375 c-2 -330 -4 -380 -19 -420 -10 -25 -19 -54 -22
-65 -2 -11 -6 -31 -10 -45 -17 -74 -25 -290 -11 -290 4 0 6 -4 3 -8 -6 -10 19
-126 40 -187 15 -42 18 -88 19 -285 l1 -235 126 -3 127 -3 3 58 c3 50 5 55 18
42 33 -31 103 -78 112 -73 4 3 8 1 8 -5 0 -14 94 -56 210 -94 91 -30 102 -31
260 -31 152 0 172 2 253 27 96 31 237 95 237 108 0 5 6 9 13 9 12 0 26 9 74
50 22 18 32 10 28 -22 -9 -67 -7 -68 131 -68 68 0 124 3 125 8 1 4 2 113 3
242 1 147 6 243 13 255 12 23 40 133 50 196 10 72 3 299 -9 299 -5 0 -8 11 -8
25 0 14 -10 51 -21 83 -21 54 -22 75 -23 432 l-2 375 -89 3 c-50 2 -91 5 -92
6 -1 1 -3 71 -4 156 -1 185 -14 231 -87 308 -62 66 -118 93 -206 99 -125 9
-221 -42 -295 -157 l-36 -55 -3 -257 -3 -258 -49 0 -49 0 -3 253 c-3 240 -4
254 -26 295 -33 62 -84 114 -142 146 -41 22 -68 29 -128 32 -45 2 -92 -2 -112
-9z"/>
</g>
</svg>
